<svg width="55" height="55" viewBox="0 0 55 55" fill="none" xmlns="http://www.w3.org/2000/svg">
<circle cx="27.5" cy="27.5" r="27.5" fill="#D9D9D9"/>
<path d="M47.611 23.083H46V23H28V31H39.303C37.654 35.657 33.223 39 28 39C21.373 39 16 33.627 16 27C16 20.373 21.373 15 28 15C31.059 15 33.842 16.154 35.961 18.039L41.618 12.382C38.046 9.053 33.268 7 28 7C16.955 7 8 15.955 8 27C8 38.045 16.955 47 28 47C39.045 47 48 38.045 48 27C48 25.659 47.862 24.35 47.611 23.083Z" fill="#FFC107"/>
<path d="M10.306 17.691L16.877 22.51C18.655 18.108 22.961 15 28 15C31.059 15 33.842 16.154 35.961 18.039L41.618 12.382C38.046 9.053 33.268 7 28 7C20.318 7 13.656 11.337 10.306 17.691Z" fill="#FF3D00"/>
<path d="M27.9999 47C33.1659 47 37.8599 45.023 41.4089 41.808L35.2189 36.57C33.1435 38.1484 30.6074 39.0021 27.9999 39C22.7979 39 18.3809 35.683 16.7169 31.054L10.1949 36.079C13.5049 42.556 20.2269 47 27.9999 47Z" fill="#4CAF50"/>
<path d="M47.611 23.083H46V23H28V31H39.303C38.5142 33.2164 37.0934 35.1532 35.216 36.571L35.219 36.569L41.409 41.807C40.971 42.205 48 37 48 27C48 25.659 47.862 24.35 47.611 23.083Z" fill="#1976D2"/>
</svg>
