<svg width="242" height="50" viewBox="0 0 242 50" fill="none" xmlns="http://www.w3.org/2000/svg">
<g id="CT logo (2) 2">
<g id="Clip path group">
<mask id="mask0_217_78" style="mask-type:luminance" maskUnits="userSpaceOnUse" x="209" y="6" width="23" height="20">
<g id="6e676cadb7">
<path id="Vector" d="M209.058 6.08017H231.029V25.8854H209.058V6.08017Z" fill="white"/>
</g>
</mask>
<g mask="url(#mask0_217_78)">
<g id="Group">
<path id="Vector_2" d="M220.014 6.08017C214.039 6.08017 209.073 10.4982 209.071 15.8175C209.068 21.37 213.911 25.7654 220.034 25.7654C226.071 25.7654 230.979 21.3587 230.987 15.933C230.992 10.5118 226.059 6.08017 220.014 6.08017ZM228.844 14.8823C228.839 14.8664 228.836 14.8483 228.834 14.8302C228.804 14.6943 228.67 14.495 228.761 14.4384C228.892 14.3546 229.073 14.5086 229.232 14.5562C229.343 14.5901 229.441 14.6558 229.55 14.6966C229.706 14.7554 229.807 14.8347 229.731 14.9887C229.701 15.6726 229.623 16.3406 229.454 16.9973C229.439 17.0584 229.406 17.1173 229.404 17.1762C229.399 17.2849 229.308 17.3188 229.227 17.3166C229.106 17.3143 229.152 17.2079 229.152 17.149C229.149 16.3836 229.023 15.6295 228.844 14.8823ZM214.932 22.7853C214.944 22.7627 214.954 22.7378 214.967 22.7151C215.448 22.7763 215.93 22.8374 216.489 22.9076C216.121 23.014 215.829 23.1386 215.524 23.1726C215.221 23.2088 215.131 22.9167 214.932 22.7853ZM215.34 23.7206C215.514 23.9651 215.7 24.2029 215.922 24.495C215.466 24.3365 215.103 24.1621 214.737 23.9878C214.599 23.9198 214.614 23.8451 214.705 23.7591C214.745 23.7206 214.785 23.6798 214.831 23.6458C215.126 23.4217 215.133 23.4262 215.34 23.7206ZM215.01 22.5974C214.884 22.5747 214.828 22.5159 214.788 22.414C214.468 21.6101 214.271 20.779 214.168 19.9298C214.135 19.6558 214.125 19.3795 214.095 19.1055C214.077 18.9583 214.115 18.8813 214.299 18.8564C214.73 18.8021 215.158 18.7387 215.579 18.6526C215.801 18.6073 215.854 18.7047 215.892 18.8519C216.036 19.4384 216.23 20.0113 216.447 20.5775C216.694 21.2206 216.973 21.8524 217.316 22.4615C217.485 22.7582 217.48 22.7604 217.122 22.8193C217.074 22.8284 217.024 22.8352 216.986 22.8419C216.318 22.7672 215.66 22.7083 215.01 22.5974ZM210.893 14.7056C210.911 15.1744 210.931 15.6454 211.029 16.1096C211.11 16.4946 211.196 16.8773 211.276 17.26C211.286 17.3166 211.36 17.38 211.294 17.4321C211.236 17.4774 211.17 17.4321 211.107 17.4072C210.911 17.3256 210.712 17.2464 210.51 17.1762C210.336 17.1128 210.263 17.0086 210.308 16.8433C210.359 16.1458 210.442 15.4529 210.611 14.7713C210.621 14.7373 210.646 14.7056 210.654 14.6717C210.676 14.5924 210.729 14.5403 210.82 14.5516C210.918 14.5652 210.891 14.649 210.893 14.7056ZM211.014 13.8904C210.994 13.3673 211.314 12.9008 211.554 12.4094C211.596 12.3188 211.66 12.3053 211.763 12.3506C212.638 12.7332 213.568 12.9597 214.516 13.1363C214.589 13.1499 214.742 13.1114 214.722 13.2654C214.705 13.3809 214.692 13.4783 214.513 13.5077C213.653 13.6458 212.794 13.784 211.959 14.0263C211.735 14.0919 211.501 14.1395 211.291 14.2301C211.024 14.3456 210.991 14.2391 211.014 14.0399C211.019 14.0036 211.014 13.9697 211.014 13.8904ZM225.101 9.14856C224.614 9.08515 224.14 9.02401 223.669 8.9606C223.669 8.94702 223.671 8.93343 223.671 8.91758C223.931 8.84285 224.191 8.76586 224.453 8.69339C224.664 8.63452 224.932 8.81794 225.101 9.14856ZM224.69 8.11368C224.523 7.87818 224.344 7.65173 224.133 7.3732C224.599 7.52265 224.977 7.70608 225.35 7.89629C225.441 7.94385 225.433 8.00725 225.365 8.07066C225.33 8.10463 225.3 8.13859 225.264 8.1703C224.954 8.43977 224.917 8.43298 224.69 8.11368ZM225.012 9.25725C225.154 9.27763 225.212 9.33425 225.257 9.44521C225.592 10.274 225.786 11.1323 225.89 12.0063C225.92 12.2622 225.927 12.5204 225.955 12.7763C225.97 12.9076 225.92 12.9756 225.779 12.9982C225.312 13.0729 224.846 13.1431 224.382 13.2246C224.191 13.2586 224.193 13.1227 224.168 13.0367C224.012 12.4366 223.815 11.8456 223.593 11.2636C223.346 10.6205 223.066 9.99095 222.721 9.38406C222.552 9.08062 222.562 9.0693 222.928 9.04666C223.016 9.04213 223.104 9.03986 223.19 9.0376C223.805 9.08742 224.41 9.16441 225.012 9.25725ZM227.518 12.5634C227.132 12.6698 226.747 12.7717 226.358 12.8782C226.124 12.9416 226.084 12.8601 226.074 12.688C226.031 11.8977 225.905 11.1164 225.69 10.3487C225.602 10.034 225.491 9.72374 225.39 9.41124C225.804 9.68071 226.104 10.0294 226.401 10.3827C226.89 10.9647 227.301 11.5919 227.677 12.2396C227.788 12.4343 227.742 12.5 227.518 12.5634ZM227.896 12.6744C228.118 13.1431 228.337 13.6141 228.494 14.1599C227.712 13.9425 226.989 13.7568 226.243 13.6549C226.18 13.6458 226.139 13.6164 226.116 13.5598C225.995 13.2631 226.127 13.0344 226.472 12.9597C226.873 12.8714 227.269 12.7604 227.654 12.6291C227.742 12.5996 227.836 12.5453 227.896 12.6744ZM225.973 14.3954C225.895 15.6409 225.685 16.8637 225.35 18.0707C225.297 18.2654 225.138 18.3016 224.977 18.2926C224.801 18.2813 224.869 18.125 224.869 18.0344C224.871 16.5874 224.68 15.1585 224.337 13.7477C224.301 13.5983 224.312 13.4941 224.549 13.5326C224.972 13.6006 225.403 13.6458 225.832 13.6979C225.963 13.7138 225.978 13.7908 225.973 13.8904C225.968 14.058 225.973 14.2278 225.973 14.3954ZM225.038 18.6345C224.972 18.6141 224.856 18.6504 224.874 18.5349C224.896 18.4103 225.015 18.4035 225.123 18.399C225.191 18.3945 225.242 18.4149 225.222 18.4941C225.186 18.5643 225.189 18.6798 225.038 18.6345ZM225.098 18.8723C225.04 19.0195 224.982 19.1667 224.924 19.3139C224.904 19.3139 224.886 19.3116 224.866 19.3116C224.866 19.1531 224.866 18.9946 224.866 18.8361C224.866 18.7545 224.906 18.7296 224.997 18.7523C225.068 18.7704 225.133 18.784 225.098 18.8723ZM220.936 18.2971C220.727 18.3016 220.757 18.168 220.765 18.0571C220.818 17.3483 220.828 16.6372 220.881 15.9262C220.881 15.2151 220.886 14.5041 220.878 13.793C220.876 13.6345 220.924 13.587 221.108 13.5756C221.856 13.5304 222.61 13.5349 223.354 13.433C223.394 13.4284 223.432 13.4307 223.472 13.4307C224.085 13.4217 224.125 13.4443 224.251 13.9742C224.45 14.8121 224.564 15.6612 224.654 16.515C224.707 17.0381 224.667 17.5634 224.758 18.082C224.793 18.2881 224.682 18.3311 224.48 18.3605C223.293 18.5326 222.118 18.2654 220.936 18.2971ZM222.502 18.4647C221.982 18.5326 221.463 18.5915 220.939 18.5688C220.868 18.5666 220.765 18.596 220.767 18.4783C220.772 18.3877 220.856 18.3945 220.921 18.399C221.448 18.4194 221.975 18.442 222.502 18.4647ZM220.661 18.0752C220.664 18.2405 220.593 18.2926 220.414 18.2858C220.127 18.2722 219.84 18.2654 219.552 18.279C219.348 18.2903 219.277 18.2382 219.28 18.0458C219.293 17.3347 219.401 14.4882 219.393 13.7772C219.391 13.6232 219.446 13.5756 219.615 13.5824C219.89 13.5938 220.17 13.6006 220.445 13.5824C220.689 13.5666 220.772 13.6323 220.762 13.861C220.704 15 220.747 16.139 220.674 17.2758C220.656 17.543 220.654 17.8102 220.661 18.0752ZM218.907 18.2994C218.037 18.3243 217.168 18.3673 216.3 18.4126C215.995 18.4284 215.884 18.3152 215.821 18.0458C215.511 16.7165 215.375 15.3691 215.3 14.015C215.272 13.51 215.282 13.5439 215.834 13.4737C216.401 13.4035 216.958 13.4624 217.518 13.4896C217.987 13.5122 218.554 13.5553 219.041 13.5756C219.119 13.5779 219.179 13.6368 219.179 13.7047V18.0276C219.182 18.2156 219.139 18.2926 218.907 18.2994ZM219.003 18.5688C218.506 18.5507 218.009 18.5281 217.513 18.5054C217.513 18.4896 217.513 18.4737 217.513 18.4579C218.012 18.4375 218.511 18.4171 219.008 18.399C219.071 18.3967 219.159 18.3809 219.167 18.4715C219.174 18.5847 219.076 18.5711 219.003 18.5688ZM214.057 18.4669C214.042 18.3786 214.016 18.2586 214.206 18.2858C214.533 18.3311 214.863 18.3718 215.191 18.4126C215.335 18.4307 215.479 18.4511 215.625 18.4715C215.627 18.4873 215.63 18.5032 215.632 18.519C215.146 18.6028 214.662 18.7092 214.173 18.7591C213.981 18.7772 214.077 18.5711 214.057 18.4669ZM215.456 18.3243C215.063 18.245 214.662 18.1997 214.261 18.159C214.067 18.1409 214.047 18.0571 214.067 17.9144C214.087 17.7559 214.095 17.5951 214.107 17.4343C214.15 16.1979 214.364 14.9842 214.697 13.784C214.75 13.5938 214.876 13.5711 215.04 13.5824C215.226 13.5915 215.163 13.7387 215.174 13.827C215.226 14.2867 215.196 14.7486 215.239 15.2106C215.33 16.1798 215.474 17.1422 215.698 18.0933C215.751 18.3107 215.736 18.3832 215.456 18.3243ZM215.075 13.1182C214.962 13.1046 214.921 13.0548 214.959 12.9552C215.017 12.8102 215.075 12.6653 215.133 12.5204C215.153 12.5249 215.171 12.5294 215.191 12.534C215.191 12.6834 215.191 12.8329 215.191 12.9801C215.189 13.0503 215.201 13.1318 215.075 13.1182ZM215 13.2156C215.085 13.2246 215.158 13.2382 215.156 13.3333C215.151 13.4556 215.053 13.4443 214.964 13.4443C214.896 13.4443 214.811 13.4579 214.831 13.3582C214.846 13.2745 214.881 13.2043 215 13.2156ZM219.111 13.4511C218.579 13.4602 218.052 13.4126 217.523 13.3492C218.057 13.3469 218.584 13.2903 219.114 13.2722C219.187 13.2699 219.288 13.2496 219.285 13.3628C219.283 13.4715 219.184 13.4488 219.111 13.4511ZM220.503 18.5688C220.314 18.5711 220.127 18.5711 219.94 18.5711C219.94 18.5688 219.94 18.5688 219.94 18.5688C219.761 18.5688 219.585 18.5711 219.409 18.5688C219.346 18.5666 219.288 18.5553 219.288 18.4828C219.288 18.4103 219.346 18.3967 219.409 18.3967C219.772 18.3945 220.137 18.3945 220.503 18.3967C220.563 18.3967 220.624 18.4081 220.621 18.4805C220.619 18.5462 220.568 18.5688 220.503 18.5688ZM220.606 18.8995C220.553 19.7396 220.508 20.5842 220.455 21.4244C220.432 21.7708 220.387 22.115 220.366 22.4615C220.359 22.5838 220.324 22.6404 220.18 22.6291C220.072 22.6223 219.961 22.6291 219.852 22.6291C219.353 22.6291 219.348 22.6291 219.34 22.1671C219.333 21.6508 219.285 19.5018 219.277 18.9425C219.275 18.7772 219.313 18.6979 219.519 18.7092C219.814 18.7251 220.112 18.7206 220.409 18.7115C220.568 18.707 220.616 18.7613 220.606 18.8995ZM219.55 13.2722C219.736 13.2699 219.925 13.2722 220.112 13.2722V13.2699C220.271 13.2699 220.427 13.2677 220.586 13.2722C220.659 13.2722 220.757 13.2541 220.752 13.365C220.752 13.4511 220.679 13.4602 220.608 13.4647C220.253 13.4873 219.898 13.4828 219.545 13.4579C219.484 13.4534 219.424 13.4466 219.419 13.3764C219.411 13.2903 219.474 13.2722 219.55 13.2722ZM220.891 13.3515C220.901 13.2586 220.987 13.2699 221.047 13.279C221.496 13.3356 221.95 13.3198 222.398 13.3515C221.95 13.4737 221.496 13.433 221.047 13.4534C220.969 13.4579 220.878 13.4602 220.891 13.3515ZM225.973 13.5485C225.955 13.639 225.862 13.5734 225.801 13.5643C225.307 13.4986 224.813 13.4352 224.249 13.3605C224.808 13.2677 225.3 13.1861 225.791 13.1092C225.852 13.1001 225.95 13.0684 225.963 13.1544C225.985 13.2835 225.995 13.4194 225.973 13.5485ZM224.039 13.0616C224.082 13.2065 224.022 13.2813 223.85 13.2813C223.732 13.2813 223.613 13.2813 223.495 13.2813C222.686 13.2496 221.879 13.1567 221.067 13.1794C220.926 13.1816 220.878 13.1363 220.881 13.0095C220.903 11.8093 220.843 10.6092 220.813 9.40897C220.808 9.25499 220.871 9.21649 221.032 9.20743C221.438 9.18932 221.841 9.15988 222.242 9.11685C222.378 9.10327 222.439 9.1395 222.494 9.23914C223.185 10.4552 223.664 11.7414 224.039 13.0616ZM220.959 9.11459C220.873 9.12591 220.8 9.11006 220.795 9.01042C220.79 8.90626 220.871 8.89946 220.954 8.90173C221.372 8.92211 221.793 8.94249 222.214 8.96287C221.803 9.09874 221.375 9.06024 220.959 9.11459ZM222.083 8.84964C221.68 8.83379 221.276 8.81341 220.871 8.7953C220.798 8.79303 220.77 8.75454 220.765 8.69339C220.724 8.14765 220.684 7.59964 220.636 6.99729C221.304 7.51586 221.766 8.09557 222.161 8.72057C222.227 8.82021 222.189 8.85417 222.083 8.84964ZM220.535 9.11912C220.407 9.11912 220.278 9.11912 220.15 9.11912C220.15 9.11912 220.15 9.11912 220.15 9.12138C220.051 9.12138 219.953 9.12365 219.857 9.11912C219.792 9.11685 219.706 9.12818 219.719 9.02854C219.726 8.9674 219.736 8.8972 219.83 8.8972C220.074 8.89493 220.319 8.89493 220.566 8.89946C220.641 8.90173 220.654 8.95155 220.659 9.01042C220.664 9.09195 220.616 9.11912 220.535 9.11912ZM219.935 9.23461C219.966 9.23687 219.996 9.23687 220.026 9.23687C220.692 9.2414 220.699 9.2414 220.712 9.85961C220.722 10.3306 220.757 12.3958 220.77 12.9552C220.772 13.1454 220.684 13.1771 220.5 13.1658C220.215 13.1499 219.928 13.1477 219.64 13.1544C219.479 13.159 219.434 13.1046 219.441 12.9688C219.474 12.3823 219.492 11.7957 219.532 11.2092C219.572 10.6159 219.64 10.0227 219.681 9.42935C219.693 9.25952 219.764 9.2097 219.935 9.23461ZM219.383 9.11685C218.856 9.08515 218.33 9.04892 217.803 9.01495C217.805 8.99457 217.808 8.97419 217.813 8.95381C218.332 8.93343 218.854 8.91079 219.373 8.89493C219.459 8.89267 219.585 8.84738 219.59 8.9991C219.593 9.14403 219.477 9.12365 219.383 9.11685ZM219.356 9.21649C219.492 9.21649 219.57 9.23461 219.557 9.39539C219.467 10.582 219.386 11.7708 219.308 12.9597C219.298 13.0933 219.277 13.1771 219.093 13.1748C218.244 13.1612 217.397 13.2179 216.691 13.279C216.179 13.2948 215.824 13.2043 215.461 13.1771C215.249 13.1612 215.33 13.0276 215.32 12.9189C215.214 11.6712 215.983 10.6929 216.557 9.65127C216.82 9.17347 217.127 8.94022 217.762 9.09421C218.274 9.21876 218.819 9.21876 219.356 9.21649ZM215.504 11.2432C215.438 10.9398 215.549 10.6499 215.605 10.3601C215.67 10.0068 215.796 9.6626 215.882 9.30934C215.917 9.16441 215.988 9.09874 216.159 9.09874C216.363 9.101 216.565 9.01948 216.82 9.07157C216.315 9.78488 215.895 10.5027 215.504 11.2432ZM216.008 8.57791C215.965 8.66396 215.879 8.6481 215.806 8.62093C215.625 8.55752 215.431 8.51903 215.259 8.39675C215.605 8.15444 215.958 7.93479 216.421 7.72646C216.26 8.05707 216.137 8.31749 216.008 8.57791ZM215.262 8.53941C215.403 8.60281 215.552 8.6481 215.695 8.70472C215.779 8.73868 215.915 8.72736 215.897 8.8587C215.879 8.97872 215.781 9.0308 215.653 9.04892C215.264 9.10553 214.876 9.16894 214.485 9.22329C214.382 9.23914 214.286 9.3116 214.122 9.2414C214.425 9.00589 214.705 8.78624 214.987 8.56885C215.07 8.50544 215.158 8.49638 215.262 8.53941ZM215.688 9.15988C215.716 9.15762 215.743 9.17347 215.779 9.18479C215.501 10.0453 215.35 10.9217 215.234 11.8071C215.184 12.2034 214.969 12.5815 214.828 12.9688C214.798 13.0548 214.735 13.0616 214.644 13.0435C213.694 12.8691 212.759 12.6585 211.879 12.2804C211.717 12.2124 211.69 12.1603 211.778 12.0109C212.325 11.1119 213.001 10.2967 213.777 9.54937C213.825 9.50635 213.883 9.45653 213.943 9.44294C214.521 9.32745 215.1 9.21649 215.688 9.15988ZM211.823 11.6803C211.763 11.7731 211.71 11.8659 211.647 11.9565C211.607 12.0131 211.609 12.1286 211.47 12.0743C211.357 12.0313 211.339 11.9543 211.372 11.8569C211.44 11.6554 211.503 11.4515 211.576 11.2477C211.629 11.1051 211.71 10.9715 211.748 10.8243C211.98 9.98416 212.638 9.63316 213.575 9.5607C212.882 10.2151 212.31 10.9194 211.823 11.6803ZM211.387 12.1671C211.445 12.1898 211.511 12.2124 211.458 12.2985C211.377 12.4207 211.339 12.5657 211.218 12.6834C211.15 12.5181 211.256 12.3823 211.266 12.2396C211.269 12.183 211.314 12.14 211.387 12.1671ZM211.014 14.6649C211.012 14.5584 210.999 14.4543 211.148 14.4044C212.214 14.0353 213.323 13.8225 214.448 13.6458C214.586 13.63 214.611 13.6889 214.576 13.8021C214.294 14.7283 214.13 15.6726 214.027 16.6259C213.979 17.0494 213.966 17.4751 213.948 17.9008C213.943 18.0458 213.913 18.1137 213.729 18.0775C213.046 17.9461 212.37 17.8012 211.707 17.611C211.564 17.5702 211.473 17.5091 211.433 17.3709C211.188 16.481 211.022 15.5842 211.014 14.6649ZM213.767 18.1997C213.999 18.2314 213.948 18.3967 213.941 18.5281C213.933 18.6526 214.022 18.8021 213.767 18.8564C213.298 18.9561 212.842 19.0965 212.383 19.2323C212.272 19.264 212.196 19.2799 212.144 19.1689C211.919 18.7002 211.707 18.2269 211.551 17.7015C212.305 17.9054 213.023 18.0933 213.767 18.1997ZM212.819 19.2052C213.099 19.1259 213.386 19.0625 213.669 18.9833C213.863 18.9266 213.953 18.9357 213.969 19.1644C214.032 20.1019 214.183 21.0304 214.483 21.9339C214.546 22.1173 214.611 22.3007 214.674 22.4819C213.767 21.7097 213.071 20.8243 212.512 19.8506C212.237 19.3727 212.242 19.3682 212.819 19.2052ZM216.01 18.8157C215.97 18.6708 215.988 18.6141 216.179 18.5802C216.58 18.5077 216.971 18.5915 217.357 18.6232C217.888 18.6662 218.423 18.639 218.955 18.6979C219.141 18.7206 219.179 18.7704 219.177 18.9244C219.169 19.5086 219.227 21.8365 219.237 22.414C219.24 22.5657 219.212 22.6336 219.018 22.6404C218.645 22.654 218.272 22.6925 217.899 22.7355C217.704 22.7559 217.599 22.7015 217.508 22.5408C216.845 21.3519 216.381 20.0996 216.01 18.8157ZM219.101 22.7514C219.184 22.7468 219.235 22.7672 219.242 22.8487C219.247 22.9393 219.182 22.9506 219.106 22.9484C218.675 22.9303 218.244 22.9121 217.81 22.894C218.239 22.7831 218.67 22.7763 219.101 22.7514ZM219.114 23.0548C219.217 23.0548 219.28 23.0956 219.288 23.1952C219.325 23.716 219.368 24.2391 219.406 24.76C219.406 24.7713 219.388 24.7849 219.356 24.8279C218.713 24.3161 218.231 23.707 217.841 23.0548C218.272 23.0548 218.693 23.0548 219.114 23.0548ZM219.507 22.7355C219.741 22.731 219.976 22.7287 220.21 22.7287C220.281 22.7265 220.324 22.7559 220.319 22.8238C220.316 22.8872 220.303 22.9506 220.213 22.9529C220.094 22.9552 219.976 22.9529 219.86 22.9529C219.86 22.9529 219.86 22.9529 219.86 22.9506C219.751 22.9506 219.646 22.9506 219.537 22.9506C219.467 22.9506 219.396 22.9461 219.393 22.8578C219.391 22.7853 219.421 22.7355 219.507 22.7355ZM220.404 23.2314C220.414 23.1159 220.467 23.0797 220.586 23.0752C221.334 23.048 222.083 23.0186 222.91 22.9869C222.161 23.8972 221.362 24.6535 220.293 25.1472C220.243 25.1698 220.185 25.2197 220.137 25.1698C220.114 25.1449 220.124 25.0861 220.135 25.0453C220.266 24.4452 220.349 23.8383 220.404 23.2314ZM220.465 22.8487C220.47 22.731 220.561 22.731 220.651 22.7378C221.034 22.7627 221.418 22.7921 221.801 22.8193C221.917 22.8261 222.035 22.8329 222.151 22.8397C221.645 22.9642 221.133 22.9484 220.624 22.9529C220.545 22.9529 220.457 22.9597 220.465 22.8487ZM222.809 22.8216C222.129 22.7061 221.438 22.654 220.747 22.6359C220.49 22.6291 220.477 22.5589 220.495 22.3573C220.578 21.4017 220.636 20.4438 220.704 19.486C220.709 19.3886 220.707 19.2912 220.712 19.1938C220.735 18.7296 220.737 18.7432 221.239 18.7025C221.985 18.6436 222.736 18.6436 223.485 18.5756C223.848 18.5417 224.226 18.6436 224.596 18.6889C224.712 18.7025 224.722 18.7749 224.717 18.8678C224.71 19.0172 224.715 19.1689 224.715 19.3207C224.768 19.7328 224.627 20.1042 224.445 20.4778C224.072 21.2432 223.656 21.986 223.144 22.6857C223.059 22.8034 222.978 22.8487 222.809 22.8216ZM224.551 20.6001C224.612 20.9035 224.498 21.1934 224.445 21.4855C224.387 21.8229 224.256 22.1513 224.183 22.4864C224.14 22.6744 224.044 22.7604 223.835 22.7695C223.639 22.7785 223.444 22.8034 223.195 22.8261C223.724 22.0924 224.15 21.3564 224.551 20.6001ZM224.301 23.2541C224.458 23.322 224.717 23.3288 224.745 23.4602C224.77 23.5734 224.518 23.6504 224.382 23.7319C224.153 23.8746 223.908 24.0014 223.669 24.1327C223.659 24.1191 223.646 24.1055 223.636 24.0897C223.757 23.8474 223.888 23.6119 223.991 23.3628C224.059 23.2065 224.148 23.1884 224.301 23.2541ZM224.344 23.1522C224.266 23.1182 224.128 23.1341 224.153 22.9959C224.175 22.8714 224.261 22.8352 224.397 22.8148C224.901 22.7446 225.403 22.6608 225.907 22.5793C225.917 22.5929 225.93 22.6064 225.94 22.62C225.635 22.8533 225.327 23.0865 225.022 23.322C224.947 23.3786 224.884 23.3583 224.806 23.3265C224.654 23.2654 224.496 23.2156 224.344 23.1522ZM224.261 22.7061C224.551 21.7912 224.705 20.899 224.823 19.9955C224.871 19.6264 225.083 19.2754 225.212 18.9131C225.257 18.784 225.358 18.8089 225.448 18.8247C226.389 18.9923 227.311 19.212 228.181 19.5788C228.34 19.6445 228.35 19.7169 228.272 19.846C227.725 20.745 227.059 21.5648 226.273 22.3053C226.217 22.3551 226.167 22.4026 226.081 22.4207C225.496 22.5385 224.909 22.6495 224.261 22.7061ZM227.868 20.6907C228.05 20.428 228.221 20.1585 228.398 19.8936C228.441 19.8279 228.461 19.7305 228.589 19.7894C228.685 19.8324 228.705 19.9049 228.68 19.9909C228.484 20.6431 228.219 21.2704 227.853 21.8637C227.818 21.9226 227.765 21.9611 227.7 21.9814C227.324 22.106 226.946 22.2305 226.532 22.2849C227.009 21.7686 227.478 21.2545 227.868 20.6907ZM228.663 19.6943C228.594 19.6671 228.544 19.6354 228.592 19.5539C228.668 19.4271 228.733 19.2935 228.836 19.1033C228.882 19.332 228.799 19.4701 228.781 19.6173C228.776 19.6626 228.741 19.7237 228.663 19.6943ZM228.489 19.4656C228.436 19.563 228.365 19.5448 228.272 19.5041C227.397 19.1169 226.467 18.8949 225.517 18.7251C225.431 18.7092 225.3 18.7183 225.33 18.5756C225.35 18.4828 225.343 18.3673 225.486 18.3469C226.691 18.1907 227.868 17.9348 229.015 17.5544C229.136 18.2699 228.811 18.8678 228.489 19.4656ZM228.657 17.5408C227.71 17.8352 226.734 18.0276 225.748 18.1929C225.433 18.245 225.428 18.2314 225.506 17.9529C225.869 16.6576 226.051 15.3374 226.099 14.0059C226.106 13.8202 226.124 13.75 226.371 13.7953C227.044 13.9198 227.707 14.0693 228.363 14.2573C228.504 14.298 228.577 14.3637 228.612 14.486C228.854 15.3216 228.99 16.1708 229.043 17.0879C229.136 17.3392 228.947 17.4525 228.657 17.5408ZM229.857 14.8958C230.447 15.0906 230.835 15.5593 230.825 16.0236C230.818 16.2681 230.667 16.4357 230.495 16.5965C230.236 16.8433 229.925 17.0199 229.555 17.183C229.726 16.4063 229.885 15.6635 229.857 14.8958ZM229.429 11.5014C230.19 12.6834 230.644 13.9334 230.747 15.2853C230.488 15.0883 230.238 14.9026 229.958 14.7577C229.845 14.6988 229.855 14.6173 229.857 14.529C229.875 13.6006 229.681 12.7015 229.378 11.8161C229.336 11.6848 229.338 11.6848 229.429 11.5014ZM229.694 13.9561C229.706 14.1146 229.719 14.2731 229.729 14.3999C229.774 14.6105 229.701 14.6422 229.537 14.5539C229.53 14.5494 229.52 14.5448 229.512 14.5426C228.862 14.3863 228.463 14.0376 228.355 13.4194C228.312 13.1816 228.171 12.9529 228.052 12.7287C227.972 12.5793 227.979 12.5023 228.166 12.4321C228.496 12.3098 228.799 12.14 229.063 11.9248C229.192 11.8184 229.237 11.8275 229.29 11.986C229.504 12.6291 229.648 13.2835 229.694 13.9561ZM229.285 11.0688C229.154 10.8945 229.02 10.7201 228.887 10.548C229.131 10.6522 229.262 10.8265 229.285 11.0688ZM228.242 9.59693C228.413 9.78941 228.584 9.98189 228.756 10.1744C228.421 10.0996 228.385 9.80753 228.156 9.6558C228.184 9.63542 228.214 9.61504 228.242 9.59693ZM228.572 10.4348C228.766 10.7835 228.952 11.1323 229.109 11.4968C229.164 11.6259 229.149 11.7097 229.041 11.8003C228.748 12.0448 228.403 12.2124 228.045 12.3687C227.871 12.4457 227.846 12.3143 227.798 12.2283C227.392 11.4833 226.911 10.7835 226.343 10.1313C226.132 9.88905 225.907 9.65354 225.643 9.36595C226.548 9.54031 227.362 9.74185 228.133 10.0634C228.33 10.1449 228.473 10.2582 228.572 10.4348ZM227.874 9.65127C227.947 9.71921 228.012 9.79167 228.083 9.86187C227.347 9.63542 226.618 9.4203 225.867 9.30028C225.416 9.22781 225.181 9.00589 225.017 8.65716C224.964 8.54167 224.972 8.48053 225.096 8.42166C225.171 8.38316 225.269 8.34466 225.307 8.28126C225.532 7.91214 225.764 8.10916 226.011 8.25635C226.686 8.66169 227.309 9.12591 227.874 9.65127ZM225.595 7.63588C226.106 7.80798 227.304 8.73868 227.609 9.20517C227.511 9.20517 227.47 9.14176 227.42 9.101C226.913 8.69113 226.374 8.31749 225.789 8.00272C225.62 7.91215 225.554 7.80571 225.595 7.63588ZM225.454 7.77175C224.828 7.42981 224.057 7.3347 223.525 6.83651C224.238 7.03126 225.022 7.11051 225.454 7.77175ZM223.369 6.94973C222.88 6.8501 222.403 6.72555 221.924 6.61685C222.423 6.66441 222.955 6.59421 223.369 6.94973ZM223.717 7.23053C224.105 7.38905 224.301 7.77401 224.531 8.09557C224.612 8.20879 224.803 8.37863 224.71 8.44656C224.554 8.56432 224.43 8.35146 224.309 8.26767C223.389 7.62455 222.396 7.10598 221.289 6.76858C221.216 6.74593 221.145 6.71876 221.075 6.69158C221.992 6.74367 222.89 6.89312 223.717 7.23053ZM224.508 8.55979C223.83 8.74774 223.228 8.98325 222.547 8.86776C222.434 8.84738 222.368 8.79983 222.32 8.72057C221.869 7.9982 221.337 7.33017 220.614 6.80254C220.596 6.78896 220.598 6.75499 220.586 6.69611C222.055 7.03352 223.316 7.67211 224.508 8.55979ZM220.132 6.67573C220.286 6.69611 220.465 6.78669 220.482 6.9837C220.52 7.35281 220.563 7.72193 220.601 8.09104C220.611 8.18841 220.611 8.28579 220.624 8.38316C220.674 8.79983 220.674 8.79983 220.223 8.79303C219.734 8.78624 219.734 8.78624 219.797 8.35146C219.867 7.87818 219.928 7.40263 220.014 6.93388C220.029 6.84557 220.001 6.65535 220.132 6.67573ZM219.646 8.62546C219.635 8.7885 219.525 8.79983 219.383 8.79756C218.652 8.78397 217.924 8.84285 217.132 8.89041C217.886 7.93479 218.746 7.15128 219.948 6.62138C219.804 7.32564 219.693 7.97102 219.646 8.62546ZM219.419 6.71423C219.114 6.92256 218.826 7.10598 218.554 7.30526C218.015 7.70381 217.551 8.16577 217.152 8.67754C217.011 8.8587 216.868 8.88135 216.653 8.83153C216.084 8.70245 216.096 8.71151 216.315 8.22238C216.53 7.74684 216.87 7.42528 217.425 7.24412C218.032 7.04711 218.64 6.85463 219.267 6.70743C219.303 6.70064 219.343 6.71196 219.419 6.71423ZM217.699 6.75272C218.04 6.72329 218.375 6.63271 218.72 6.66894C218.201 6.86142 217.659 6.97691 217.178 7.2328C217.145 7.25091 217.069 7.24865 217.044 7.226C216.999 7.18977 217.047 7.14675 217.077 7.11504C217.246 6.94068 217.415 6.77763 217.699 6.75272ZM217.135 6.72781C216.373 6.92256 215.63 7.16486 214.901 7.43887C215.567 6.98823 216.336 6.81839 217.135 6.72781ZM214.841 7.62682C215.532 7.32564 216.24 7.07202 217.004 6.92935C216.827 7.19883 216.663 7.45925 216.328 7.60644C215.95 7.77401 215.602 7.9914 215.264 8.22012C215.073 8.35146 214.858 8.26993 214.682 8.01631C214.543 7.8193 214.634 7.7174 214.841 7.62682ZM214.458 7.83062C214.523 8.03216 214.649 8.19747 214.841 8.31749C214.934 8.37637 214.954 8.41713 214.853 8.49412C214.503 8.76586 214.163 9.04892 213.812 9.32066C213.674 9.42935 213.482 9.42256 213.316 9.47238C213.021 9.5607 212.721 9.63542 212.355 9.73733C212.925 8.9289 213.492 8.21332 214.458 7.83062ZM212.829 8.8655C212.428 9.29575 212.292 9.95698 211.463 10.0747C211.891 9.59919 212.328 9.20291 212.829 8.8655ZM211.112 10.5027C211.357 10.2967 211.647 10.1449 212.033 10.0159C211.695 10.6159 211.448 11.1753 211.274 11.7573C211.226 11.9226 211.163 11.8818 211.06 11.8025C210.568 11.4312 210.581 10.9534 211.112 10.5027ZM210.543 11.2772C210.674 11.5942 210.868 11.8184 211.125 11.9996C211.211 12.0607 211.16 12.1513 211.145 12.226C211.009 12.9371 210.873 13.6504 210.596 14.3342C210.558 14.4294 210.52 14.5177 210.397 14.5743C209.976 14.7668 209.577 14.9932 209.227 15.3918C209.325 13.9017 209.734 12.5702 210.543 11.2772ZM209.242 15.7631C209.363 15.1744 209.948 14.966 210.477 14.6671C210.399 15.0883 210.313 15.4574 210.263 15.8311C210.213 16.1979 210.195 16.567 210.16 16.9905C209.623 16.678 209.119 16.3836 209.242 15.7631ZM210.639 20.2808C210.543 20.3193 210.533 20.2219 210.505 20.1744C209.812 19.0421 209.383 17.8374 209.257 16.4719C209.519 16.7437 209.759 16.9248 210.034 17.0675C210.144 17.1241 210.17 17.2102 210.172 17.3121C210.19 18.2609 210.361 19.1893 210.679 20.0929C210.702 20.1631 210.729 20.2423 210.639 20.2808ZM210.767 19.8845C210.555 19.2505 210.399 18.6073 210.366 17.9461C210.354 17.7151 210.258 17.4909 210.321 17.2419C210.651 17.3664 210.956 17.4842 211.264 17.5951C211.367 17.6313 211.418 17.6993 211.445 17.7876C211.596 18.2563 211.783 18.7138 212.007 19.1576C212.078 19.2958 212.053 19.3592 211.902 19.418C211.564 19.5494 211.249 19.7147 210.976 19.9366C210.873 20.0204 210.82 20.0498 210.767 19.8845ZM211.533 21.5059C211.291 21.1345 211.11 20.736 210.931 20.3352C210.881 20.2242 210.906 20.1495 210.991 20.0747C211.286 19.8143 211.642 19.6445 212.01 19.4882C212.191 19.4112 212.207 19.5562 212.252 19.64C212.688 20.4303 213.205 21.173 213.82 21.8592C213.991 22.0516 214.17 22.2373 214.405 22.4909C213.427 22.3053 212.559 22.0879 211.745 21.7188C211.637 21.6712 211.586 21.5897 211.533 21.5059ZM211.997 21.9905C212.585 22.1671 213.164 22.3528 213.767 22.4751C213.903 22.5023 214.034 22.5476 214.17 22.5566C214.639 22.5929 214.879 22.8555 215.037 23.2179C215.075 23.3084 215.085 23.3922 214.984 23.4126C214.72 23.4692 214.637 23.9063 214.349 23.7636C213.452 23.3107 212.673 22.7083 211.997 21.9905ZM214.448 24.2482C213.631 23.8157 212.96 23.2586 212.355 22.6019C212.461 22.5861 212.496 22.6495 212.539 22.6834C213.069 23.1227 213.636 23.519 214.253 23.8519C214.42 23.9425 214.483 24.0557 214.448 24.2482ZM214.576 24.0104C215.214 24.4339 215.98 24.5177 216.542 24.9909C215.945 25.0476 214.702 24.4588 214.576 24.0104ZM216.593 24.8687C217.117 24.9932 217.576 25.0996 218.035 25.2083C217.551 25.188 217.044 25.2514 216.593 24.8687ZM216.772 24.7917C215.993 24.606 215.716 24.0104 215.335 23.4919C215.312 23.4624 215.297 23.4262 215.327 23.3945C215.365 23.356 215.413 23.3605 215.461 23.3854C215.486 23.399 215.509 23.4149 215.532 23.433C216.54 24.1938 217.664 24.769 218.907 25.1698C218.173 25.1336 217.475 24.9592 216.772 24.7917ZM218.599 24.923C217.551 24.5788 216.605 24.0716 215.736 23.4443C215.562 23.3198 215.589 23.2654 215.781 23.2179C216.328 23.082 216.868 22.894 217.457 22.9846C217.548 22.9982 217.634 22.9959 217.684 23.0797C218.143 23.8315 218.718 24.5041 219.434 25.0747C219.446 25.0815 219.441 25.1064 219.446 25.1381C219.144 25.12 218.872 25.0113 218.599 24.923ZM219.908 25.1744C219.772 25.1608 219.608 25.0861 219.58 24.9457C219.472 24.3705 219.446 23.784 219.396 23.1997C219.388 23.091 219.459 23.0639 219.562 23.0684C219.663 23.0729 219.761 23.0707 219.86 23.0707C220.291 23.091 220.291 23.091 220.251 23.4964C220.203 23.99 220.137 24.4814 220.019 24.9683C220.001 25.043 220.046 25.1902 219.908 25.1744ZM220.127 25.6658C220.072 25.6658 219.973 25.7065 219.981 25.5956C219.988 25.505 220.051 25.4756 220.145 25.4914C220.248 25.5095 220.349 25.5344 220.462 25.6137C220.339 25.6861 220.228 25.6635 220.127 25.6658ZM222.988 23.0797C223.076 22.9688 223.17 22.928 223.306 23.0118C223.328 23.0254 223.361 23.0276 223.389 23.0344C223.961 23.1567 223.949 23.1522 223.732 23.6277C223.525 24.0806 223.223 24.4158 222.683 24.5924C222.03 24.803 221.39 25.0408 220.692 25.1178C221.614 24.5675 222.353 23.87 222.988 23.0797ZM221.158 25.2287C221.793 25.0362 222.421 24.8347 223.041 24.6037C222.605 25.3057 221.821 25.1087 221.158 25.2287ZM222.991 25.1132C223.704 24.9185 224.402 24.6966 225.093 24.4452C224.47 24.8664 223.747 25.0317 222.991 25.1132ZM225.227 24.2233C224.511 24.5358 223.775 24.7985 222.97 24.9728C223.235 24.5743 223.555 24.2957 223.984 24.1033C224.274 23.9742 224.528 23.7862 224.796 23.6232C224.98 23.5122 225.209 23.6028 225.37 23.8474C225.486 24.0263 225.433 24.1304 225.227 24.2233ZM226.237 23.6889C226.147 23.7432 226.051 23.7908 225.965 23.8496C225.746 23.9968 225.567 24.0648 225.428 23.7568C225.373 23.6368 225.214 23.5553 225.111 23.4624C225.794 22.7808 226.575 22.2577 227.611 22.1762C227.49 22.5249 226.691 23.4149 226.237 23.6889ZM227.2 22.9937C227.616 22.5657 227.76 21.8999 228.519 21.789C228.423 22.0199 227.664 22.7378 227.2 22.9937ZM229.199 21.0394C228.94 21.438 228.526 21.6372 228.073 21.8025C228.358 21.2319 228.605 20.6658 228.781 20.0725C228.814 19.9638 228.854 19.9728 228.94 20.0227C229.343 20.2514 229.439 20.6726 229.199 21.0394ZM228.978 19.9049C228.887 19.8392 228.874 19.7804 228.892 19.6784C229.023 18.938 229.187 18.2043 229.457 17.4932C229.489 17.4117 229.52 17.337 229.625 17.2917C230.062 17.106 230.457 16.8614 230.828 16.4629C230.712 17.9665 230.309 19.3048 229.492 20.6024C229.391 20.2785 229.21 20.0702 228.978 19.9049Z" fill="#FF4FF3"/>
</g>
</g>
</g>
<g id="Clip path group_2">
<mask id="mask1_217_78" style="mask-type:luminance" maskUnits="userSpaceOnUse" x="10" y="23" width="27" height="27">
<g id="b3fcab1722">
<path id="Vector_3" d="M10.9984 23.7681H36.1387V49.2754H10.9984V23.7681Z" fill="white"/>
</g>
</mask>
<g mask="url(#mask1_217_78)">
<g id="Group_2">
<path id="Vector_4" d="M35.6723 41.8863C35.6723 42.5906 35.1152 43.4556 34.4371 43.8134L24.5731 48.9289C23.8899 49.2822 22.7757 49.2822 22.1052 48.9266L12.2311 43.8066C11.553 43.4556 10.9934 42.5906 10.9984 41.8886V31.6486C10.9984 30.9466 11.553 30.0815 12.2361 29.7283L22.0951 24.6082C22.7833 24.2573 23.8899 24.2573 24.5731 24.6082L34.4421 29.7283C35.1152 30.0793 35.6723 30.9466 35.6774 31.6486L35.6723 41.8863Z" fill="#FF4FF3"/>
</g>
</g>
</g>
<path id="Vector_5" d="M63.1494 41.8863C63.1494 42.5906 62.5973 43.4556 61.9167 43.8134L52.0451 48.9289C51.367 49.2822 50.2528 49.2822 49.5772 48.9266L39.7107 43.8066C39.0326 43.4556 38.4704 42.5906 38.4755 41.8886V31.6486C38.4755 30.9466 39.0326 30.0815 39.7107 29.7283L49.5772 24.6082C50.2528 24.2573 51.3721 24.2573 52.0451 24.6082L61.9167 29.7283C62.5973 30.0793 63.1494 30.9466 63.1544 31.6486L63.1494 41.8863Z" fill="#FF4FF3"/>
<path id="Vector_6" d="M49.4109 20.668C49.4109 21.3678 48.8588 22.2373 48.1807 22.5883L38.3066 27.7083C37.6285 28.0548 36.5193 28.0548 35.8362 27.7083L25.9671 22.5883C25.289 22.2373 24.7344 21.37 24.7344 20.668V10.4303C24.742 9.72599 25.289 8.85869 25.9671 8.50543L35.8362 3.39447C36.5244 3.03668 37.6285 3.03668 38.3066 3.39447L48.1807 8.50543C48.8563 8.85869 49.4109 9.72373 49.4109 10.4303V20.668Z" fill="#FF4FF3"/>
<g id="Group_3">
<g id="Group_4">
<g id="Group_5">
<path id="Vector_7" d="M63.5775 25.3383C61.4398 25.3383 59.5038 24.9216 57.7695 24.0883C56.0402 23.2504 54.684 22.091 53.6958 20.61C52.7077 19.1245 52.2136 17.4488 52.2136 15.5828C52.2136 13.7169 52.7077 12.0457 53.6958 10.5647C54.684 9.07921 56.0402 7.91979 57.7695 7.08646C59.5038 6.25312 61.4499 5.83646 63.6077 5.83646C65.4278 5.83646 67.0714 6.12405 68.5385 6.69696C70.0107 7.27215 71.2459 8.09642 72.2492 9.16979L69.1233 11.7604C67.7041 10.2884 65.9471 9.55022 63.8497 9.55022C62.5515 9.55022 61.3919 9.80838 60.371 10.3202C59.3475 10.8274 58.551 11.5407 57.9812 12.4578C57.4166 13.3772 57.1342 14.4189 57.1342 15.5828C57.1342 16.749 57.4166 17.7907 57.9812 18.7078C58.551 19.6272 59.3475 20.3428 60.371 20.8546C61.3919 21.3618 62.5515 21.6154 63.8497 21.6154C65.9471 21.6154 67.7041 20.8704 69.1233 19.3781L72.2492 21.9687C71.2459 23.0625 70.0056 23.8981 68.5284 24.4778C67.0487 25.0507 65.3975 25.3383 63.5775 25.3383Z" fill="#FF4FF3"/>
</g>
</g>
</g>
<g id="Group_6">
<g id="Group_7">
<g id="Group_8">
<path id="Vector_8" d="M85.5795 18.3274V25.0122H80.7194V18.2821L72.5922 6.15347H77.7549L83.3612 14.5321L88.9675 6.15347H93.737L85.5795 18.3274Z" fill="#FF4FF3"/>
</g>
</g>
</g>
<g id="Group_9">
<g id="Group_10">
<g id="Group_11">
<path id="Vector_9" d="M111.177 15.2024C112.379 15.5466 113.32 16.1218 114 16.9234C114.678 17.7205 115.019 18.7033 115.019 19.8672C115.019 21.5226 114.303 22.793 112.871 23.6806C111.444 24.5683 109.362 25.0122 106.619 25.0122H95.7695V6.15347H106.024C108.585 6.15347 110.547 6.59505 111.913 7.47594C113.284 8.35909 113.97 9.55021 113.97 11.0538C113.97 11.9732 113.723 12.7907 113.234 13.5085C112.742 14.2287 112.057 14.7925 111.177 15.2024ZM100.599 9.44152V13.889H105.419C106.622 13.889 107.532 13.7033 108.152 13.3274C108.769 12.947 109.08 12.3899 109.08 11.6517C109.08 10.9157 108.769 10.3632 108.152 9.99405C107.532 9.6272 106.622 9.44152 105.419 9.44152H100.599ZM106.266 21.7241C107.542 21.7241 108.505 21.5384 109.15 21.1625C109.8 20.7821 110.128 20.1979 110.128 19.4053C110.128 17.8473 108.84 17.0683 106.266 17.0683H100.599V21.7241H106.266Z" fill="#FF4FF3"/>
</g>
</g>
</g>
<g id="Group_12">
<g id="Group_13">
<g id="Group_14">
<path id="Vector_10" d="M134.955 21.5067V25.0122H118.701V6.15347H134.562V9.65891H123.53V13.7531H133.271V17.1498H123.53V21.5067H134.955Z" fill="#FF4FF3"/>
</g>
</g>
</g>
<g id="Group_15">
<g id="Group_16">
<g id="Group_17">
<path id="Vector_11" d="M152.184 25.0122L148.141 19.7585H143.674V25.0122H138.814V6.15347H147.899C149.759 6.15347 151.373 6.43427 152.739 6.99586C154.11 7.55293 155.164 8.34324 155.905 9.36905C156.644 10.3903 157.014 11.6018 157.014 13.0013C157.014 14.403 156.636 15.61 155.885 16.6245C155.139 17.639 154.075 18.4157 152.699 18.9524L157.408 25.0122H152.184ZM152.094 13.0013C152.094 11.9393 151.713 11.1263 150.954 10.5647C150.193 9.99858 149.084 9.71326 147.627 9.71326H143.674V16.2803H147.627C149.084 16.2803 150.193 15.995 150.954 15.4198C151.713 14.8469 152.094 14.0407 152.094 13.0013Z" fill="#FF4FF3"/>
</g>
</g>
</g>
<g id="Group_18">
<g id="Group_19">
<g id="Group_20">
<path id="Vector_12" d="M165.192 9.71326H158.476V6.15347H176.767V9.71326H170.052V25.0122H165.192V9.71326Z" fill="#FF4FF3"/>
</g>
</g>
</g>
<g id="Group_21">
<g id="Group_22">
<g id="Group_23">
<path id="Vector_13" d="M192.741 25.0122L188.697 19.7585H184.23V25.0122H179.37V6.15347H188.455C190.316 6.15347 191.929 6.43427 193.295 6.99586C194.667 7.55293 195.72 8.34324 196.462 9.36905C197.2 10.3903 197.571 11.6018 197.571 13.0013C197.571 14.403 197.193 15.61 196.441 16.6245C195.695 17.639 194.631 18.4157 193.255 18.9524L197.964 25.0122H192.741ZM192.65 13.0013C192.65 11.9393 192.269 11.1263 191.511 10.5647C190.749 9.99858 189.64 9.71326 188.183 9.71326H184.23V16.2803H188.183C189.64 16.2803 190.749 15.995 191.511 15.4198C192.269 14.8469 192.65 14.0407 192.65 13.0013Z" fill="#FF4FF3"/>
</g>
</g>
</g>
<g id="Group_24">
<g id="Group_25">
<g id="Group_26">
<path id="Vector_14" d="M201.402 6.15347H206.262V25.0122H201.402V6.15347Z" fill="#FF4FF3"/>
</g>
</g>
</g>
<g id="Group_27">
<g id="Group_28">
<g id="Group_29">
<path id="Vector_15" d="M36.9827 21.7492C35.8988 21.7492 34.8476 21.6315 33.8266 21.396C32.8107 21.1559 31.9864 20.8344 31.3562 20.4358L32.5965 17.9358C33.1939 18.2868 33.8871 18.5699 34.6736 18.7873C35.4601 19.0047 36.2365 19.1134 37.0029 19.1134C38.4473 19.1134 39.1708 18.7873 39.1708 18.1351C39.1708 17.7977 38.9616 17.5463 38.5456 17.3833C38.1347 17.2157 37.4718 17.0368 36.5592 16.8489C35.5559 16.6564 34.7165 16.448 34.0384 16.2239C33.3653 16.0019 32.788 15.6442 32.304 15.155C31.82 14.6659 31.578 14.0047 31.578 13.1713C31.578 12.4422 31.7999 11.7832 32.2435 11.1967C32.6923 10.6057 33.3578 10.1369 34.24 9.7927C35.1274 9.4485 36.2113 9.2764 37.497 9.2764C38.3767 9.2764 39.2414 9.36698 40.0884 9.54814C40.9404 9.72477 41.6942 9.98292 42.347 10.3271L41.1774 12.8452C39.9069 12.2248 38.6717 11.9123 37.4768 11.9123C36.7231 11.9123 36.176 12.0164 35.8332 12.2202C35.4904 12.4195 35.319 12.6799 35.319 12.9992C35.319 13.3208 35.5206 13.5608 35.924 13.7239C36.3323 13.8824 36.9928 14.0454 37.9003 14.213C38.9137 14.4077 39.7556 14.6161 40.4211 14.838C41.0917 15.0622 41.6715 15.4177 42.1555 15.9068C42.6445 16.3914 42.8915 17.0481 42.8915 17.8815C42.8915 18.6016 42.6697 19.2538 42.226 19.838C41.7824 20.4177 41.1118 20.8842 40.2195 21.2329C39.3321 21.5771 38.2532 21.7492 36.9827 21.7492Z" fill="white"/>
</g>
</g>
</g>
<g id="Group_30">
<g id="Group_31">
<g id="Group_32">
<path id="Vector_16" d="M21.368 42.0993C20.3849 42.0993 19.495 41.9476 18.6959 41.6464C17.8943 41.3452 17.2389 40.9105 16.7297 40.3421L18.7867 38.141C19.4976 38.9811 20.2689 39.4 21.0958 39.4C21.6453 39.4 22.0638 39.2529 22.3461 38.9562C22.6335 38.655 22.7797 38.2202 22.7797 37.6519V32.4888H18.1615V29.8711H26.5206V37.4435C26.5206 38.997 26.082 40.1609 25.2098 40.9399C24.3426 41.7144 23.062 42.0993 21.368 42.0993Z" fill="white"/>
</g>
</g>
</g>
<g id="Group_33">
<g id="Group_34">
<g id="Group_35">
<path id="Vector_17" d="M46.5559 29.8711H50.3372V39.1736H56.7098V41.8638H46.5559V29.8711Z" fill="white"/>
</g>
</g>
</g>
</g>
</svg>
